<svg width="269" height="68" viewBox="0 0 269 68" fill="none" xmlns="http://www.w3.org/2000/svg">
<g clip-path="url(#clip0_0_3)">
<path d="M91.9267 22.6689C93.6388 21.4836 95.8777 20.8251 98.5117 20.8251C101.146 20.8251 102.99 21.4836 104.833 22.6689C106.677 23.8542 107.994 25.698 108.784 27.9369L115.106 26.0931C114.052 22.6689 112.077 19.9032 109.179 17.9277C106.282 15.9522 102.726 14.8986 98.6434 14.8986C94.5607 14.8986 91.5316 15.8205 88.7659 17.5326C86.0002 19.2447 83.893 21.6153 82.4443 24.6444C80.9956 27.6735 80.2054 31.2294 80.2054 35.3121C80.2054 39.2631 80.9956 42.6873 82.4443 45.8481C83.893 49.0089 86.0002 51.3795 88.6342 53.0916C91.3999 54.8037 94.6924 55.7256 98.6434 55.7256C102.594 55.7256 106.019 54.8037 108.916 52.8282C111.813 50.9844 113.789 48.2187 115.106 44.5311L108.653 42.819C107.731 45.0579 106.545 46.6383 104.833 47.8236C103.121 49.0089 101.014 49.5357 98.5117 49.5357C94.6924 49.5357 91.795 48.2187 89.8195 45.5847C87.844 42.9507 86.9221 39.5265 86.7904 35.1804C86.7904 32.4147 87.1855 29.9124 88.1074 27.8052C89.0293 25.698 90.2146 23.9859 91.9267 22.6689Z" fill="white"/>
<path d="M124.062 15.9522H117.74V54.5403H124.062V15.9522Z" fill="white"/>
<path d="M124.062 2.51877H117.74V9.10377H124.062V2.51877Z" fill="white"/>
<path d="M150.533 15.9522C149.348 15.6888 148.163 15.5571 146.846 15.6888C145.529 15.6888 144.212 16.0839 143.026 16.479C141.709 16.8741 140.656 17.5326 139.602 18.3228C138.68 18.9813 137.89 19.7715 137.1 20.8251C136.836 21.2202 136.573 21.747 136.31 22.1421V15.9522H130.647V54.5403H137.1V35.1804C137.1 33.6 137.1 32.1513 137.495 30.7026C137.758 29.2539 138.285 27.9369 138.944 26.6199C139.602 25.3029 140.524 24.2493 141.841 23.4591C143.158 22.4055 144.738 21.8787 146.319 21.747C147.899 21.6153 149.348 21.747 150.665 22.0104V16.0839L150.533 15.9522Z" fill="white"/>
<path d="M162.123 22.6689C163.835 21.4836 166.074 20.8251 168.708 20.8251C171.342 20.8251 173.186 21.4836 175.029 22.6689C176.873 23.8542 178.19 25.698 178.98 27.9369L185.302 26.0931C184.249 22.6689 182.273 19.9032 179.376 17.9277C176.478 15.9522 172.922 14.8986 168.84 14.8986C164.757 14.8986 161.728 15.8205 158.962 17.5326C156.196 19.2447 154.089 21.6153 152.64 24.6444C151.192 27.6735 150.402 31.2294 150.402 35.3121C150.402 39.2631 151.192 42.6873 152.64 45.8481C154.089 49.0089 156.196 51.3795 158.83 53.0916C161.596 54.8037 164.889 55.7256 168.84 55.7256C172.791 55.7256 176.215 54.8037 179.112 52.8282C182.01 50.8527 183.985 48.2187 185.302 44.5311L178.849 42.819C177.927 45.0579 176.742 46.6383 175.029 47.8236C173.317 49.0089 171.21 49.5357 168.708 49.5357C164.889 49.5357 161.991 48.2187 160.016 45.5847C158.04 42.9507 157.118 39.5265 156.987 35.1804C156.987 32.4147 157.382 29.9124 158.304 27.8052C159.094 25.698 160.411 23.9859 162.123 22.6689Z" fill="white"/>
<path d="M194.258 1.99196H187.936V54.5403H194.258V1.99196Z" fill="white"/>
<path d="M231.792 37.0242H235.085C235.216 32.4147 234.69 28.4637 233.373 25.1712C232.056 21.8787 229.948 19.3764 227.183 17.5326C224.417 15.6888 221.125 14.8986 217.305 14.8986C213.486 14.8986 210.325 15.6888 207.559 17.4009C204.794 19.113 202.687 21.4836 201.106 24.5127C199.526 27.5418 198.736 31.2294 198.736 35.4438C198.736 39.6582 199.526 42.9507 201.106 45.9798C202.687 49.0089 204.925 51.3795 207.691 52.9599C210.457 54.5403 213.881 55.4622 217.569 55.4622C221.256 55.4622 224.68 54.5403 227.71 52.6965C230.739 50.8527 232.978 48.2187 234.426 44.7945L228.368 42.6873C227.314 44.9262 225.866 46.5066 223.89 47.6919C221.915 48.8772 219.808 49.404 217.305 49.404C213.486 49.404 210.589 48.087 208.613 45.5847C206.901 43.4775 205.847 40.4484 205.584 36.7608H231.792V37.0242ZM208.481 24.381C210.589 21.8787 213.486 20.5617 217.437 20.5617C221.388 20.5617 223.89 21.747 225.734 24.1176C227.183 25.9614 228.105 28.5954 228.5 31.8879H205.584C205.979 28.7271 206.901 26.2248 208.481 24.381Z" fill="white"/>
<path d="M267.615 38.4729C266.825 37.1559 265.376 35.9706 263.4 34.917C261.425 33.8634 258.791 32.9415 255.367 32.1513C252.337 31.3611 250.099 30.7026 248.386 30.1758C246.806 29.5173 245.752 28.9905 245.094 28.332C244.435 27.6735 244.172 26.8833 244.172 25.9614C244.172 24.2493 244.962 22.9323 246.543 22.0104C248.123 21.0885 250.099 20.5617 252.601 20.6934C255.235 20.6934 257.474 21.3519 259.054 22.5372C260.766 23.7225 261.688 25.3029 262.083 27.4101L268.537 26.2248C268.273 23.9859 267.483 22.0104 266.034 20.2983C264.586 18.5862 262.742 17.2692 260.503 16.3473C258.132 15.4254 255.63 14.8986 252.601 14.8986C249.572 14.8986 247.069 15.4254 244.831 16.3473C242.592 17.2692 240.88 18.5862 239.694 20.2983C238.509 22.0104 237.85 23.9859 237.85 26.2248C237.85 28.4637 238.246 29.649 239.036 30.966C239.826 32.283 241.275 33.3366 243.25 34.3902C245.226 35.3121 247.86 36.3657 251.284 37.1559C254.445 37.9461 256.815 38.7363 258.396 39.2631C259.976 39.9216 261.03 40.4484 261.425 41.2386C261.952 41.8971 262.215 42.819 262.215 43.8726C262.215 45.7164 261.425 47.2968 259.976 48.3504C258.527 49.404 256.42 49.9308 253.786 49.9308C251.152 49.9308 248.65 49.2723 246.806 48.087C244.962 46.9017 243.777 45.1896 243.25 43.0824L236.797 44.136C237.455 47.8236 239.299 50.5893 242.197 52.5648C245.094 54.5403 248.913 55.5939 253.523 55.5939C258.132 55.5939 262.083 54.5403 264.849 52.4331C267.615 50.3259 268.932 47.4285 268.932 43.6092C268.932 39.7899 268.537 39.9216 267.615 38.6046V38.4729Z" fill="white"/>
<path d="M31.8714 1.72856C14.3553 1.72856 8.04663e-07 16.0839 8.04663e-07 33.6C8.04663e-07 51.1161 14.3553 65.4714 31.8714 65.4714C49.3876 65.4714 63.7429 51.1161 63.7429 33.6C63.7429 16.0839 49.3876 1.72856 31.8714 1.72856ZM54.2605 43.0824C54.7873 43.0824 55.1824 43.0824 55.7092 42.9507C53.3386 45.1896 50.3095 46.5066 46.8853 46.5066C39.7734 46.5066 33.9786 40.7118 33.9786 33.6C33.9786 26.4882 39.7734 20.6934 46.8853 20.6934C53.9971 20.6934 53.4703 22.0104 55.7092 24.2493C55.1824 24.2493 54.7873 24.1176 54.2605 24.1176C48.9925 24.1176 44.7781 28.332 44.7781 33.6C44.7781 38.868 48.9925 43.0824 54.2605 43.0824ZM46.7536 16.6107C37.4028 16.6107 29.7642 24.2493 29.7642 33.6C29.7642 42.9507 37.4028 50.5893 46.7536 50.5893C56.1043 50.5893 50.3095 50.3259 52.0216 49.7991C48.4657 52.6965 43.8561 54.5403 38.8515 54.5403C27.3936 54.5403 18.0429 45.1896 18.0429 33.7317C18.0429 22.2738 27.3936 12.9231 38.8515 12.9231C50.3095 12.9231 48.4657 14.6352 52.0216 17.6643C50.3095 17.1375 48.5974 16.8741 46.7536 16.8741V16.6107ZM54.2605 38.9997C51.2314 38.9997 48.8608 36.4974 48.8608 33.6C48.8608 30.7026 51.3631 28.2003 54.2605 28.2003C57.1579 28.2003 59.6602 30.7026 59.6602 33.6C59.6602 36.4974 57.1579 38.9997 54.2605 38.9997ZM4.08271 33.6C4.08271 18.1911 16.4625 5.81127 31.8714 5.81127C47.2804 5.81127 42.144 7.39167 46.3585 9.89397C43.9879 9.10377 41.4855 8.70867 38.8515 8.70867C25.1547 8.70867 13.9602 19.9032 13.9602 33.6C13.9602 47.2968 25.1547 58.4913 38.8515 58.4913C52.5484 58.4913 43.9879 58.0962 46.3585 57.306C42.144 59.94 37.1394 61.3887 31.8714 61.3887C16.5942 61.3887 4.08271 48.8772 4.08271 33.6Z" fill="white"/>
</g>
<defs>
<clipPath id="clip0_0_3">
<rect width="268.8" height="67.2" fill="white"/>
</clipPath>
</defs>
</svg>
